<?xml version="1.0" encoding="iso-8859-1"?>
<!-- Generator: Adobe Illustrator 19.0.0, SVG Export Plug-In . SVG Version: 6.00 Build 0)  -->
<svg height="32" version="1.1" width="32" xmlns="http://www.w3.org/2000/svg" style="overflow: hidden; position: relative;"><desc style="-webkit-tap-highlight-color: rgba(0, 0, 0, 0);">Created with Raphaël 2.1.0</desc><defs style="-webkit-tap-highlight-color: rgba(0, 0, 0, 0);"></defs><path fill="#444444" stroke="none" d="M0,0" stroke-width="0" transform="matrix(1,0,0,1,0,0)" style="-webkit-tap-highlight-color: rgba(0, 0, 0, 0);"></path><path fill="#f43d58" stroke="none" d="M4,12.796C4,12.889999999999999,4.066,13.004999999999999,4.146,13.053999999999998L15.852,19.964C15.933,20.011999999999997,16.066,20.011999999999997,16.147000000000002,19.964L27.852000000000004,13.052C27.935,13.004,28,12.888,28,12.794V11.8C28,11.611,27.868,11.535,27.705,11.633000000000001L16,18.587L4.295,11.633C4.133,11.535,4,11.61,4,11.8V12.796Z" stroke-width="0" transform="matrix(1,0,0,1,0,0)" style="-webkit-tap-highlight-color: rgba(0, 0, 0, 0);"></path><path fill="#444444" stroke="none" d="M0,0" stroke-width="0" transform="matrix(1,0,0,1,0,0)" style="-webkit-tap-highlight-color: rgba(0, 0, 0, 0);"></path><rect x="0" y="0" width="32" height="32" r="0" rx="0" ry="0" fill="#ffffff" stroke="none" stroke-width="0" opacity="0" style="-webkit-tap-highlight-color: rgba(0, 0, 0, 0); opacity: 0;"></rect></svg>