<?xml version="1.0" encoding="utf-8"?>
<!-- Generator: Adobe Illustrator 16.0.4, SVG Export Plug-In . SVG Version: 6.00 Build 0)  -->
<!DOCTYPE svg PUBLIC "-//W3C//DTD SVG 1.1//EN" "http://www.w3.org/Graphics/SVG/1.1/DTD/svg11.dtd">
<svg version="1.1" id="Layer_1" xmlns="http://www.w3.org/2000/svg" xmlns:xlink="http://www.w3.org/1999/xlink" x="0px" y="0px"
	 width="283.46px" height="283.46px" viewBox="0 0 283.46 283.46" enable-background="new 0 0 283.46 283.46" xml:space="preserve">
<g>
	<g>
		<path fill="#383736" d="M80.565,180.574c0,20.798-8.658,20.798-19.342,20.798h-4.236c-10.682,0-19.342,0-19.342-20.798l0,0
			c0-5.742,1.328-13.025,5.666-14.704c4.731-1.831,1.414-6.092,13.677-6.092h4.236C71.907,159.778,80.565,169.09,80.565,180.574
			L80.565,180.574z"/>
		<g>
			<polyline fill="#F3D2BC" points="50.118,212.478 50.118,221.771 59.163,229.07 68.039,220.774 68.039,212.113 			"/>
			<path opacity="0.5" fill="#E4C4B1" d="M68.039,214.999v2.048c0,0-9.496,5.774-14.714,7.883h-3.207v-9.376L68.039,214.999z"/>
		</g>
		<path fill="#F3D2BC" d="M64.995,169.666h-4.644h-3.185h-4.646c-6.208,0-11.241,5.728-11.241,12.788l0.651,18.282
			c0,6.825,10.218,14.833,16.506,15.363l0.001,0.028c0.104,0,0.213-0.01,0.32-0.013c0.105,0.003,0.214,0.013,0.319,0.013l0-0.028
			c6.289-0.53,16.506-8.538,16.506-15.363l0.652-18.282C76.237,175.394,71.204,169.666,64.995,169.666z"/>
		<g>
			<path fill="#F3D2BC" d="M81.312,195c0,1.502-2.369,3.538-3.871,3.538h-1.659c-1.502,0,0-1.705,0-3.207l0.715-5.512
				c0-1.5,1.37-3.892,2.872-3.892l0,0c1.501,0,2.718,1.217,2.718,2.718L81.312,195z"/>
			<path fill="#F3D2BC" d="M37.13,195c0,1.502,2.371,3.538,3.873,3.538h1.659c1.501,0,0-1.705,0-3.207l-0.716-5.512
				c0-1.5-1.371-3.892-2.872-3.892l0,0c-1.501,0-2.718,1.217-2.718,2.718L37.13,195z"/>
		</g>
		<path fill="#383736" d="M74.123,176.842c2.156,2.803,1.149,12.571,1.816,17.274c0,0,1.621-6.916,1.84-8.886v-5.955l-2.664-8.021
			l-9.51-2.599H47.906l-5.753,4.285l-1.994,7.662l1.122,13.778c0,0-0.013-7.713,3.306-12.34c1.969-2.744,3.802-6.565,3.982-9.101
			C48.569,172.94,54.019,176.345,74.123,176.842"/>
		<g>
			<path fill="#383736" d="M75.666,198.815c0,0-3.535,13.298-16.561,13.298c-13.025,0-17.242-13.298-17.242-13.298
				c-0.583,22.828,17.242,19.894,17.242,19.894C58.842,218.741,76.237,219.319,75.666,198.815z"/>
			<g>
				<path fill="#383736" d="M58.967,202.537c-1.629,0.126-9.327-1.781-9.24,5.503c0,0,0.5-3.603,4.325-2.745
					c1.959,0.439,2.184,0.814,4.915-0.627"/>
				<path fill="#383736" d="M58.967,202.537c1.631,0.126,9.327-1.781,9.24,5.503c0,0-0.5-3.603-4.325-2.745
					c-1.96,0.439-2.184,0.814-4.916-0.627"/>
			</g>
		</g>
		<g>
			<path fill="#E6E6E5" d="M95.213,230.288c-1.895-2.213-26.892-9.514-26.892-9.514l-9.554,4.503l-9.154-4.503
				c0,0-24.997,7.301-26.891,9.514c-1.895,2.213-1.277,10.841-1.277,15.044c0,4.204,0.158,13.054,0.158,13.054l42.803,1.124
				l-0.185-1.124h32.111c0,0,0.157-8.85,0.157-13.054C96.489,241.129,97.108,232.501,95.213,230.288z"/>
			<g>
				<path fill="#F3F3F3" d="M58.767,225.277c0,0-8.569-4.291-10.053-5.049l-5.157,2.634l6.749,11.386L58.767,225.277z"/>
				<path fill="#F3F3F3" d="M58.762,225.277c0,0,8.57-4.291,10.053-5.049l5.158,2.634l-7.104,11.386L58.762,225.277z"/>
			</g>
		</g>
	</g>
	<g>
		<g>
			<polygon fill="#544841" points="184.888,228.921 139.418,228.921 139.54,177.166 184.888,180.135 			"/>
			<path fill="#544841" d="M184.662,183.47c-2.374,18.45-11.928,26.175-23.062,26.175c-11.135,0-17.559-6.444-21.714-25.837
				c-1.559-7.28,0.497-17.039,10.326-18.567c1.66-0.259,2.663-5.346,13.532-5.686C180.802,159.023,186.104,172.263,184.662,183.47z"
				/>
		</g>
		<g>
			<polyline fill="#F3D2BC" points="170.973,209.645 170.973,219.158 162.497,223.26 154.022,220.176 154.022,209.645 			"/>
			<path opacity="0.5" fill="#E4C4B1" d="M170.973,209.645v1.243c0,0-8.34,6.185-13.672,8.341h-3.278v-9.584H170.973z"/>
		</g>
		<path fill="#F3D2BC" d="M178.331,200.369c0,5.068-10.113,13.722-15.969,13.722l0,0c-5.855,0-15.917-9.668-15.917-14.396
			l-0.872-17.365c0-6.661,4.748-12.062,10.604-12.062h12.37c5.854,0,10.603,5.4,10.603,12.062L178.331,200.369z"/>
		<path fill="#544841" d="M145.877,188.934c0,0,5.281-7.67,6.346-14.283c0,0,1.062,5.474,3.901,6.721c0,0-1.064-1.124,0-4.687
			c0,0,4.613,4.919,9.58,6.444c0,0-2.656-2.543-2.57-4.24c0,0,1.68,3.907,7.839,5.433c0,0-0.833-1.146-1.366-2.95
			c0,0,2.759,3.709,5.419,4.046c0,0-1.563-2.857-1.387-4.322c0,0,4.121,7.336,4.121,9.497c0,0,4.981-5.936,2.854-13.963
			l-2.854-4.354l-10.054-3.73h-16.625l-6.837,6.388L145.877,188.934z"/>
		<g>
			<path fill="#F2DF90" d="M194.526,228.882c-1.674-2.262-23.764-9.724-23.764-9.724l-8.266,4.102l-8.266-4.102
				c0,0-22.088,7.462-23.762,9.724c-1.675,2.262-1.127,11.08-1.127,15.378c0,4.297,0.138,13.342,0.138,13.342h33.017h33.018
				c0,0,0.139-9.045,0.139-13.342C195.653,239.962,196.2,231.144,194.526,228.882z"/>
			<g>
				<path fill="#FFEE99" d="M162.497,223.26c0,0-7.84-3.925-9.197-4.619l-3.559,2.075l8.438,10.686L162.497,223.26z"/>
				<path fill="#FFEE99" d="M162.497,223.26c0,0,7.597-3.925,8.952-4.619l3.561,2.075l-7.903,10.686L162.497,223.26z"/>
			</g>
			<g>
				<circle fill="#FFEE99" cx="162.693" cy="229.771" r="0.848"/>
				<circle fill="#FFEE99" cx="162.693" cy="237.531" r="0.848"/>
				<circle fill="#FFEE99" cx="162.693" cy="245.293" r="0.848"/>
				<circle fill="#FFEE99" cx="162.693" cy="253.055" r="0.848"/>
			</g>
		</g>
		<g>
			<g>
				<path fill="#F3D2BC" d="M182.831,193.816c0,1.228-1.939,2.896-3.168,2.896h-1.357c-1.229,0,0-1.396,0-2.625l-0.26-3.869
					c0-1.229,1.967-3.822,3.195-3.822l0,0c1.228,0,2.224,0.996,2.224,2.224L182.831,193.816z"/>
				<circle fill="#F8F5E8" cx="179.87" cy="196.463" r="0.847"/>
			</g>
			<g>
				<path fill="#F3D2BC" d="M142.025,193.816c0,1.228,1.939,2.896,3.167,2.896h1.358c1.229,0,0-1.396,0-2.625l-0.586-4.508
					c0-1.227-1.12-3.184-2.349-3.184l0,0c-1.229,0-2.223,0.996-2.223,2.224L142.025,193.816z"/>
				<circle fill="#F8F5E8" cx="145.092" cy="196.463" r="0.848"/>
			</g>
		</g>
	</g>
	<g>
		<path fill="#F3D2BC" d="M181.762,256.089c0,5.203,0.169,16.16,0.169,16.16h39.996v-46.567"/>
		<path fill="#F3D2BC" d="M211.913,225.682"/>
		<path fill="#F3D2BC" d="M231.938,225.682c0,0,25.497,9.711,27.524,12.451c2.029,2.74,2.629,12.752,2.629,17.956
			c0,5.203-0.169,16.16-0.169,16.16h-39.996v-46.567"/>
		<path fill="#F79421" d="M232.193,183.484"/>
		<path fill="#F79421" d="M225.811,182.039"/>
		<path fill="#E4BB53" d="M211.66,225.769"/>
		<g>
			<path fill="#754D25" d="M249.049,212.043c0,0-12.179,7.086-27.286,7.501c-15.151,0.419-27.795-7.501-27.795-7.501v-34.966h55.081
				V212.043z"/>
			<path fill="#754D25" d="M248.775,182.451c-2.876,22.35-14.447,31.707-27.936,31.707s-21.27-7.809-26.303-31.297
				c-1.889-8.821,0.601-20.643,12.507-22.494c2.013-0.312,3.227-6.475,16.394-6.886C244.1,152.838,250.522,168.878,248.775,182.451z
				"/>
		</g>
		<g>
			<path fill="#F3D2BC" d="M232.193,214.158v11.523c0,0-7.657,2.236-10.159,3.133c-3.045,1.089-10.374-1.899-10.374-1.899v-12.757"
				/>
			<path opacity="0.5" fill="#E4C4B1" d="M232.193,214.158v1.506c0,0-10.103,7.492-16.562,10.104h-3.971v-11.61H232.193z"/>
		</g>
		<path fill="#F3D2BC" d="M241.106,202.923c0,6.139-12.249,16.621-19.344,16.621l0,0c-7.093,0-19.281-11.71-19.281-17.439
			l-1.055-21.036c0-8.068,5.75-14.61,12.844-14.61h14.983c7.094,0,12.845,6.542,12.845,14.61L241.106,202.923z"/>
		<g>
			<path fill="#F3D2BC" d="M246.558,194.983c0,1.488-2.351,3.508-3.837,3.508h-1.645c-1.487,0,0-1.69,0-3.179l0.708-5.461
				c0-1.488,1.357-3.857,2.846-3.857l0,0c1.488,0,2.695,1.206,2.695,2.695L246.558,194.983z"/>
			<path fill="#F3D2BC" d="M197.128,194.983c0,1.488,2.349,3.508,3.837,3.508h1.644c1.488,0,0-1.69,0-3.179l-0.709-5.461
				c0-1.488-1.356-3.857-2.845-3.857l0,0c-1.488,0-2.694,1.206-2.694,2.695L197.128,194.983z"/>
		</g>
		<path fill="#754D25" d="M241.609,191.21c0,0,3.264-18.277-1.194-18.895v-3.425l-12.181-4.521h-20.137l-8.283,7.74l1.979,16.957
			c0,0,6.396-9.29,7.687-17.302c0,0,1.723,7.739,30.936,19.313"/>
		<g>
			<path fill="#E16991" d="M261.963,241.394c-0.305-5.154-6.623-6.981-6.623-6.981l-19.626-7.458l-5.53,2.949l-8.149-1.073v-0.016
				l-0.064,0.008l-0.064-0.008l-0.001,0.017l-8.146,1.072l-5.533-2.949l-19.624,7.458c0,0-6.32,1.827-6.623,6.981
				c-0.304,5.155-0.047,30.855-0.047,30.855h37.16h2.836h40.083C262.01,272.249,262.267,246.549,261.963,241.394z"/>
			<g>
				<path fill="#F8F3EB" d="M210.946,223.678c0,0,4.119,5.817,11.088,5.137c0,0-5.872,11.361-14.271,6.379
					C199.234,230.135,210.946,223.678,210.946,223.678z"/>
				<path fill="#F8F3EB" d="M232.979,223.678c0,0-3.901,5.782-10.869,5.102c0,0,5.652,11.396,14.052,6.414
					C244.691,230.135,232.979,223.678,232.979,223.678z"/>
			</g>
		</g>
	</g>
	<g>
		<path fill="#CD2436" d="M153.926,239.651c-2.227-2.601-31.606-11.181-31.606-11.181h-10.994h-10.994
			c0,0-29.378,8.58-31.606,11.181c-2.228,2.6-1.5,12.741-1.5,17.684c0,4.939,0.184,15.341,0.184,15.341h43.916h43.917
			c0,0,0.185-10.401,0.185-15.341C155.427,252.393,156.154,242.251,153.926,239.651z"/>
		<path fill="#754D25" d="M136.709,179.239c0,24.444-10.177,26.426-22.733,26.426h-4.979c-12.555,0-22.734,0-22.734-24.442l0,0
			c0-6.749,1.561-15.31,6.659-17.283c5.562-2.152,1.663-7.159,16.075-7.159h4.979c12.556,0,22.733,7.639,22.733,24.442V179.239z"/>
		<g>
			<polyline fill="#F3D2BC" points="100.925,218.719 100.925,229.641 111.482,233.33 121.986,228.471 121.986,218.29 			"/>
			<path opacity="0.5" fill="#E4C4B1" d="M121.986,216.882v2.404c0,0-11.16,6.787-17.293,9.266h-3.767V217.53L121.986,216.882z"/>
		</g>
		<path fill="#F3D2BC" d="M111.454,223.011L111.454,223.011c-7.294,0-20.15-9.793-20.15-18.093l-0.766-21.486
			c0-8.3,5.916-15.029,13.21-15.029h9.202"/>
		<path fill="#F3D2BC" d="M110.704,223.011L110.704,223.011c7.296,0,20.152-9.793,20.152-18.093l0.767-21.486
			c0-8.3-5.916-15.029-13.211-15.029h-9.202"/>
		<path fill="#754D25" d="M90.538,197.447c0,0-0.014-9.063,3.885-14.503c2.314-3.225,4.47-7.717,4.682-10.694
			c0,0,8.841,6.836,14.562,6.231c0,0-1.821-2.426-2.212-5.025c0,0,14.183,10.116,18.849,11.439c0,0,0.187,6.715,0.969,12.244
			c0,0,1.905-8.129,2.161-10.448v-6.994l-3.13-9.429l-11.175-3.054H98.324l-6.762,5.035l-2.344,9.007L90.538,197.447z"/>
		<g>
			<path fill="#E6E6E5" d="M105.983,242.476c0,0,5.789,3.172,11.048-0.646l-5.502-8.499L105.983,242.476z"/>
			<path fill="#F3F3F3" d="M111.482,233.33c0,0-10.071-5.042-11.814-5.933l-6.062,3.095l11.427,14.919L111.482,233.33z"/>
			<path fill="#F3F3F3" d="M111.477,233.33c0,0,10.072-5.042,11.815-5.933l6.062,3.095l-11.427,14.919L111.477,233.33z"/>
		</g>
		<g>
			<path fill="#F3D2BC" d="M85.659,198.177c0,1.764,2.787,4.158,4.551,4.158h1.95c1.765,0,0-2.004,0-3.77l-0.841-6.476
				c0-1.764-1.61-4.574-3.375-4.574l0,0c-1.766,0-3.195,1.43-3.195,3.192L85.659,198.177z"/>
			<path fill="#F3D2BC" d="M136.908,198.177c0,1.764-2.786,4.158-4.55,4.158h-1.95c-1.766,0,0-2.004,0-3.77l0.84-6.476
				c0-1.764,1.608-4.574,3.375-4.574l0,0c1.765,0,3.195,1.43,3.195,3.192L136.908,198.177z"/>
		</g>
	</g>
</g>
<g id="N2ruOY.tif">
	<g>
		<path fill="#E2F2EF" d="M227.699,83.335c0,2.087,0,4.173,0,6.26c-0.232,1.062-0.465,2.124-0.695,3.186
			c-3.15,14.626-18.184,24.699-33.316,22.207c-2.967-0.489-5.854-1.451-8.822-2.207c-9.553,15.985-31.777,18.2-44.775,5.948
			c-0.102,0.042-0.223,0.065-0.303,0.133c-0.254,0.217-0.492,0.451-0.738,0.677c-4.727,4.345-10.202,7.419-16.543,8.904
			c-2.613,0.612-5.304,0.908-7.96,1.348c-1.019,0-2.039,0-3.058,0c-0.314-0.083-0.624-0.217-0.943-0.24
			c-11.088-0.814-20.086-5.464-27.113-13.797c-0.321-0.38-1.132-0.626-1.658-0.553c-10.993,1.547-21.808-5.1-24.992-15.425
			c-0.367-1.189-0.682-2.393-1.021-3.59c0-1.867,0-3.734,0-5.601c0.107-0.243,0.271-0.476,0.313-0.729
			c1.501-9.091,8.354-16.157,17.608-18.075c1.691-0.351,3.424-0.517,5.071-0.759c1.515-8.764,5.966-15.554,13.764-20.08
			c7.788-4.521,16.077-4.973,24.608-2.269c7.037-21.017,27.937-33.379,49.911-30.145c19.92,2.931,36.199,18.631,38,40.051
			c0.342,0.123,0.701,0.271,1.072,0.384c10.721,3.248,17.627,10.098,20.662,20.589C227.133,80.798,227.393,82.073,227.699,83.335z"
			/>
	</g>
</g>
<text transform="matrix(1 0 0 1 132.0308 98.667)" fill="#969EA2" font-family="'BaronNeue'" font-size="60">?</text>
<text transform="matrix(1 0 0 1 130.0308 97.667)" fill="#3E5363" font-family="'BaronNeue'" font-size="60">?</text>
<circle fill="#E2F2EF" cx="61.824" cy="147.062" r="5.719"/>
<circle fill="#E2F2EF" cx="229.159" cy="141.73" r="5.719"/>
<circle fill="#E2F2EF" cx="218.063" cy="124.867" r="6.719"/>
<circle fill="#E2F2EF" cx="116.03" cy="143.879" r="4.386"/>
<circle fill="#E2F2EF" cx="67.112" cy="127.867" r="5.719"/>
<circle fill="#E2F2EF" cx="168.754" cy="151.062" r="4.161"/>
<circle fill="#E2F2EF" cx="166.812" cy="134.299" r="4.161"/>
</svg>
