<?xml version="1.0" encoding="utf-8"?>
<!-- Generator: Adobe Illustrator 16.0.4, SVG Export Plug-In . SVG Version: 6.00 Build 0)  -->
<!DOCTYPE svg PUBLIC "-//W3C//DTD SVG 1.1//EN" "http://www.w3.org/Graphics/SVG/1.1/DTD/svg11.dtd">
<svg version="1.1" id="Layer_1" xmlns="http://www.w3.org/2000/svg" xmlns:xlink="http://www.w3.org/1999/xlink" x="0px" y="0px"
	 width="841.89px" height="595.28px" viewBox="0 0 841.89 595.28" enable-background="new 0 0 841.89 595.28" xml:space="preserve">
<g>
	<polygon fill="#BFBDBE" points="521.166,72.689 703.13,197.6 318.046,337.759 136.082,212.849 	"/>
	<g>
		<defs>
			<polygon id="SVGID_1_" points="521.166,72.689 703.13,197.6 318.046,337.759 136.082,212.849 			"/>
		</defs>
		<clipPath id="SVGID_2_">
			<use xlink:href="#SVGID_1_"  overflow="visible"/>
		</clipPath>
		<path clip-path="url(#SVGID_2_)" fill="#ED2C3A" d="M299.521,237.079c-26.672,9.708-63.624,7.058-82.527-5.919
			c-18.908-12.979-12.605-31.369,14.066-41.077c5.584-2.032,11.621-3.523,17.846-4.491c0.61-0.242,1.233-0.478,1.868-0.709
			c25.208-9.175,60.128-6.671,77.995,5.594c17.867,12.264,11.915,29.645-13.294,38.82c-0.635,0.231-1.278,0.455-1.925,0.671
			C309.796,232.633,305.104,235.046,299.521,237.079 M521.235,72.615L135.917,212.859l91.029,62.487l103.862-37.803l-3.744-2.57
			l177.592-64.639l3.744,2.57l103.863-37.803L521.235,72.615"/>
		<polyline clip-path="url(#SVGID_2_)" fill="#FFFFFF" points="612.265,135.102 508.401,172.905 512.607,175.792 335.014,240.431 
			330.809,237.544 226.946,275.347 317.976,337.835 703.294,197.59 612.265,135.102 		"/>
		<path clip-path="url(#SVGID_2_)" fill="#FFFFFF" d="M231.06,190.083c-26.672,9.708-32.975,28.097-14.066,41.077
			c18.903,12.977,55.855,15.626,82.527,5.919c5.584-2.033,10.275-4.446,14.029-7.11c-25.034,8.371-58.654,5.69-76.07-6.265
			c-17.416-11.956-12.198-28.772,11.426-38.111C242.681,186.56,236.644,188.051,231.06,190.083"/>
		<path clip-path="url(#SVGID_2_)" fill="#ED2C3A" d="M285.054,220.262l-3.269-4.86l8.255,3.045l8.105-2.967l-3.029,4.831
			l8.281,3.027l-10.13-0.062l-2.993,4.838l-3.228-4.867l-10.124-0.04L285.054,220.262 M317.267,208.537l-3.264-4.862l8.25,3.047
			l8.11-2.968l-3.035,4.833l8.281,3.027l-10.131-0.062l-2.987,4.836l-3.228-4.867l-10.129-0.038L317.267,208.537 M253.753,208.896
			l-3.273-4.862l8.259,3.048l8.105-2.967l-3.029,4.831l8.281,3.027l-10.131-0.062l-2.992,4.838l-3.222-4.869l-10.129-0.038
			L253.753,208.896 M305.236,190.157l-3.273-4.862l8.259,3.048l8.105-2.967l-3.029,4.831l8.281,3.027l-10.131-0.062l-2.992,4.838
			l-3.222-4.869l-10.13-0.037L305.236,190.157 M265.98,190.221l-3.269-4.86l8.255,3.045l8.104-2.967l-3.029,4.831l8.275,3.03
			l-10.125-0.064l-2.992,4.839l-3.228-4.867l-10.124-0.04L265.98,190.221 M250.774,184.883c-0.635,0.231-1.258,0.467-1.868,0.709
			c-23.625,9.339-28.842,26.156-11.426,38.111c17.416,11.955,51.036,14.636,76.07,6.265c0.647-0.216,1.29-0.44,1.925-0.671
			c25.209-9.175,31.161-26.556,13.294-38.82C310.902,178.212,275.982,175.708,250.774,184.883"/>
		<polyline clip-path="url(#SVGID_2_)" fill="#FFFFFF" points="250.479,204.033 253.753,208.896 245.621,211.843 255.75,211.88 
			258.972,216.749 261.964,211.911 272.095,211.973 263.814,208.945 266.844,204.114 258.738,207.081 250.479,204.033 		"/>
		<polyline clip-path="url(#SVGID_2_)" fill="#FFFFFF" points="301.962,185.295 305.236,190.157 297.103,193.105 307.233,193.142 
			310.455,198.011 313.447,193.173 323.578,193.234 315.297,190.207 318.326,185.376 310.221,188.343 301.962,185.295 		"/>
		<polyline clip-path="url(#SVGID_2_)" fill="#FFFFFF" points="262.711,185.36 265.98,190.221 257.848,193.168 267.972,193.208 
			271.2,198.074 274.192,193.235 284.317,193.3 276.042,190.27 279.071,185.439 270.966,188.406 262.711,185.36 		"/>
		<polyline clip-path="url(#SVGID_2_)" fill="#FFFFFF" points="281.785,215.402 285.054,220.262 276.922,223.209 287.045,223.249 
			290.273,228.115 293.266,223.277 303.396,223.339 295.115,220.312 298.145,215.48 290.04,218.447 281.785,215.402 		"/>
		<polyline clip-path="url(#SVGID_2_)" fill="#FFFFFF" points="314.003,203.675 317.267,208.537 309.135,211.484 319.264,211.522 
			322.492,216.389 325.479,211.552 335.609,211.614 327.329,208.587 330.363,203.754 322.253,206.722 314.003,203.675 		"/>
		<polyline clip-path="url(#SVGID_2_)" fill="#4A4342" points="504.657,170.335 327.065,234.974 330.809,237.544 335.014,240.431 
			512.607,175.792 508.401,172.905 504.657,170.335 		"/>
	</g>
	<polygon fill="#BDBBBC" points="703.13,197.6 705.805,414.55 320.721,554.709 318.046,337.759 	"/>
	<g>
		<defs>
			<polygon id="SVGID_3_" points="703.13,197.6 705.805,414.55 320.721,554.709 318.046,337.759 			"/>
		</defs>
		<clipPath id="SVGID_4_">
			<use xlink:href="#SVGID_3_"  overflow="visible"/>
		</clipPath>
		<path clip-path="url(#SVGID_4_)" fill="#F0EFEF" d="M544.705,389.399c1.917-0.698,3.557-1.764,4.91-3.187
			c1.36-1.433,2.512-3.097,3.449-4.984c0.942-1.889,1.689-3.928,2.239-6.13c0.55-2.194,0.964-4.394,1.239-6.589
			s0.455-4.343,0.538-6.435s0.117-3.972,0.097-5.645c-0.021-1.666-0.101-3.505-0.234-5.518c-0.134-2.021-0.364-4.011-0.691-5.987
			s-0.79-3.855-1.39-5.633c-0.6-1.783-1.39-3.27-2.37-4.459c-0.975-1.191-2.156-1.999-3.54-2.433c-1.377-0.43-3.027-0.298-4.945,0.4
			s-3.557,1.764-4.917,3.188c-1.359,1.433-2.506,3.088-3.448,4.978c-0.938,1.888-1.684,3.933-2.234,6.135
			c-0.55,2.194-0.963,4.394-1.239,6.589c-0.275,2.196-0.455,4.336-0.543,6.437c-0.083,2.092-0.117,3.972-0.097,5.638
			c0.021,1.673,0.101,3.512,0.234,5.525c0.139,2.011,0.369,4.009,0.696,5.984s0.791,3.855,1.391,5.633
			c0.599,1.783,1.389,3.263,2.364,4.454c0.98,1.189,2.157,2.006,3.54,2.44C541.137,390.229,542.787,390.097,544.705,389.399
			 M602.546,305.691l0.841,68.153l-6.909,2.515l-0.712-57.757l-0.165,0.06l-10.311,14.102l-4.181-4.382l15.433-20.505
			L602.546,305.691 M511.557,399.724l0.093,7.511l-37.486,13.644l-0.113-9.243l21.641-33.019c1.347-2.037,2.536-3.902,3.562-5.594
			c1.024-1.699,1.874-3.293,2.541-4.794c0.674-1.504,1.164-2.987,1.478-4.454c0.308-1.464,0.454-3.037,0.434-4.703
			c-0.022-1.799-0.315-3.299-0.879-4.513c-0.569-1.212-1.335-2.138-2.31-2.788c-0.969-0.645-2.104-1.008-3.397-1.086
			c-1.293-0.071-2.679,0.158-4.159,0.697c-2.959,1.077-5.388,2.959-7.281,5.643c-1.894,2.69-3.096,5.772-3.602,9.243l-7.487,1.948
			c0.347-2.897,1.046-5.615,2.089-8.156c1.038-2.533,2.358-4.802,3.957-6.803c1.6-2.001,3.413-3.739,5.43-5.216
			c2.017-1.478,4.203-2.641,6.56-3.499c2.412-0.878,4.693-1.307,6.838-1.283c2.149,0.027,4.042,0.51,5.677,1.461
			c1.636,0.951,2.945,2.409,3.936,4.371c0.985,1.965,1.496,4.449,1.533,7.468c0.033,2.692-0.25,5.252-0.854,7.661
			c-0.6,2.407-1.429,4.724-2.47,6.943c-1.048,2.216-2.232,4.388-3.556,6.509c-1.322,2.128-2.714,4.262-4.174,6.406l-17.678,26.254
			l0.003,0.193L511.557,399.724 M460.345,418.363l0.092,7.511l-38.061,13.853l-0.84-68.152l36.581-13.314l0.093,7.511l-29.673,10.8
			l0.264,21.364l27.697-10.081l0.093,7.51l-27.697,10.082l0.299,24.257L460.345,418.363 M647.564,313.672
			c2.794-1.017,5.333-1.379,7.623-1.081c2.285,0.293,4.262,1.153,5.932,2.58c1.67,1.421,2.962,3.334,3.872,5.74
			c0.91,2.413,1.385,5.219,1.425,8.425c0.042,3.405-0.427,6.688-1.405,9.843c-0.984,3.162-2.349,6.049-4.106,8.65
			c-1.757,2.607-3.85,4.901-6.271,6.874c-2.428,1.981-5.067,3.492-7.913,4.527c-4.438,1.615-8.026,1.79-10.769,0.532
			s-4.931-3.487-6.565-6.694l6.865-5.598c1.021,2.212,2.487,3.754,4.396,4.639c1.909,0.885,4.098,0.878,6.562-0.019
			c1.753-0.639,3.376-1.598,4.875-2.886s2.801-2.826,3.91-4.616c1.104-1.788,1.977-3.766,2.607-5.93
			c0.637-2.166,0.94-4.432,0.911-6.811c-0.031-2.499-0.428-4.577-1.191-6.233c-0.764-1.657-1.803-2.905-3.104-3.757
			c-1.303-0.845-2.834-1.284-4.602-1.317c-1.761-0.035-3.654,0.312-5.681,1.05c-1.975,0.719-3.995,1.855-6.068,3.421
			c-2.073,1.558-3.979,3.269-5.716,5.119l0.138-35.628l30.497-11.1l0.093,7.51l-23.759,8.648l-0.019,18.468
			c1.091-1.039,2.303-1.915,3.644-2.631C645.084,314.688,646.357,314.111,647.564,313.672 M543.921,325.871
			c4.001-1.456,7.287-1.54,9.864-0.256c2.576,1.284,4.626,3.377,6.147,6.27c1.522,2.894,2.582,6.33,3.18,10.303
			s0.921,7.885,0.968,11.73c0.048,3.852-0.176,7.963-0.671,12.334c-0.495,4.37-1.461,8.544-2.898,12.508
			c-1.438,3.978-3.417,7.529-5.939,10.676c-2.522,3.141-5.78,5.438-9.781,6.895s-7.292,1.543-9.863,0.256
			c-2.577-1.291-4.626-3.376-6.148-6.276c-1.521-2.887-2.581-6.323-3.18-10.296c-0.604-3.971-0.926-7.884-0.974-11.735
			c-0.047-3.845,0.177-7.956,0.677-12.328c0.495-4.371,1.462-8.545,2.898-12.516c1.438-3.97,3.417-7.528,5.939-10.67
			C536.656,329.627,539.921,327.327,543.921,325.871 M401.277,409.117l0.413,33.493c-3.319,3.404-6.816,6.29-10.503,8.656
			c-3.687,2.372-7.424,4.255-11.203,5.631c-4.553,1.656-8.724,2.305-12.529,1.949c-3.8-0.357-7.108-1.604-9.913-3.742
			s-5.002-5.127-6.593-8.96c-1.585-3.841-2.413-8.419-2.479-13.75c-0.066-5.392,0.681-10.577,2.243-15.557
			c1.562-4.986,3.747-9.551,6.56-13.7c2.812-4.15,6.101-7.783,9.858-10.891c3.757-3.108,7.833-5.462,12.215-7.058
			c3.835-1.396,7.532-2.064,11.082-2.005c3.551,0.066,6.744,1.221,9.578,3.476l-5.1,8.242c-2-1.789-4.426-2.841-7.265-3.159
			c-2.84-0.318-5.733,0.059-8.692,1.136c-3.346,1.218-6.433,3.051-9.267,5.494c-2.828,2.449-5.285,5.312-7.366,8.579
			c-2.081,3.273-3.688,6.858-4.824,10.752c-1.135,3.894-1.675,7.893-1.624,11.997c0.05,4.046,0.683,7.584,1.903,10.62
			c1.221,3.037,2.903,5.443,5.045,7.207s4.699,2.815,7.676,3.15c2.977,0.336,6.247-0.145,9.809-1.441
			c2.356-0.857,4.816-2.094,7.386-3.705c2.569-1.611,4.913-3.449,7.031-5.505l-0.257-20.892l-13.396,4.876l-0.093-7.504
			L401.277,409.117 M320.721,554.711l385.085-140.16l-2.675-216.954L318.046,337.758L320.721,554.711"/>
		<path clip-path="url(#SVGID_4_)" fill="#A2A4A7" d="M379.983,456.897c3.779-1.376,7.517-3.259,11.203-5.631
			c3.687-2.366,7.184-5.252,10.503-8.656l-0.413-33.493l-20.305,7.391l0.093,7.504l13.396-4.876l0.257,20.892
			c-2.118,2.056-4.462,3.894-7.031,5.505c-2.57,1.611-5.03,2.848-7.386,3.705c-3.562,1.297-6.832,1.777-9.809,1.441
			c-2.977-0.335-5.533-1.387-7.676-3.15s-3.825-4.17-5.045-7.207c-1.22-3.036-1.853-6.574-1.903-10.62
			c-0.051-4.104,0.489-8.104,1.624-11.997c1.135-3.894,2.743-7.479,4.824-10.752c2.081-3.268,4.538-6.13,7.366-8.579
			c2.834-2.443,5.921-4.276,9.267-5.494c2.959-1.077,5.853-1.454,8.692-1.136c2.839,0.318,5.264,1.37,7.265,3.159l5.1-8.242
			c-2.834-2.255-6.027-3.409-9.578-3.476c-3.55-0.06-7.247,0.609-11.082,2.005c-4.382,1.596-8.458,3.949-12.215,7.058
			c-3.757,3.107-7.045,6.74-9.858,10.891c-2.813,4.149-4.998,8.714-6.56,13.7c-1.562,4.979-2.31,10.165-2.243,15.557
			c0.066,5.331,0.894,9.909,2.479,13.75c1.591,3.833,3.788,6.821,6.593,8.96s6.113,3.385,9.913,3.742
			C371.26,459.202,375.431,458.554,379.983,456.897"/>
		<polyline clip-path="url(#SVGID_4_)" fill="#A2A4A7" points="422.376,439.727 460.437,425.874 460.345,418.363 429.192,429.702 
			428.894,405.445 456.591,395.363 456.498,387.854 428.801,397.935 428.537,376.57 458.21,365.771 458.117,358.26 421.536,371.574 
			422.376,439.727 		"/>
		<path clip-path="url(#SVGID_4_)" fill="#808285" d="M474.163,420.878l37.486-13.644l-0.093-7.511l-29.678,10.802l-0.003-0.193
			l17.678-26.254c1.46-2.145,2.852-4.278,4.174-6.406c1.323-2.121,2.508-4.293,3.556-6.509c1.041-2.22,1.87-4.536,2.47-6.943
			c0.604-2.409,0.888-4.969,0.854-7.661c-0.037-3.019-0.548-5.503-1.533-7.468c-0.99-1.962-2.3-3.42-3.936-4.371
			c-1.635-0.951-3.527-1.434-5.677-1.461c-2.145-0.023-4.426,0.405-6.838,1.283c-2.356,0.858-4.543,2.021-6.56,3.499
			c-2.017,1.477-3.83,3.215-5.43,5.216c-1.599,2.001-2.919,4.27-3.957,6.803c-1.043,2.541-1.742,5.259-2.089,8.156l7.487-1.948
			c0.506-3.471,1.708-6.553,3.602-9.243c1.894-2.684,4.322-4.565,7.281-5.643c1.48-0.539,2.866-0.769,4.159-0.697
			c1.293,0.078,2.429,0.441,3.397,1.086c0.975,0.65,1.74,1.576,2.31,2.788c0.563,1.214,0.856,2.714,0.879,4.513
			c0.021,1.666-0.126,3.239-0.434,4.703c-0.313,1.467-0.804,2.95-1.478,4.454c-0.667,1.501-1.517,3.095-2.541,4.794
			c-1.025,1.691-2.215,3.557-3.562,5.594l-21.641,33.019L474.163,420.878"/>
		<path clip-path="url(#SVGID_4_)" fill="#808285" d="M544.007,332.802c1.918-0.698,3.568-0.83,4.945-0.4
			c1.384,0.434,2.565,1.241,3.54,2.433c0.98,1.189,1.771,2.676,2.37,4.459c0.6,1.777,1.062,3.656,1.39,5.633
			s0.558,3.967,0.691,5.987c0.134,2.013,0.214,3.852,0.234,5.518c0.021,1.673-0.014,3.553-0.097,5.645s-0.263,4.239-0.538,6.435
			s-0.689,4.395-1.239,6.589c-0.55,2.202-1.297,4.241-2.239,6.13c-0.938,1.888-2.089,3.552-3.449,4.984
			c-1.354,1.423-2.993,2.488-4.91,3.187c-1.918,0.697-3.568,0.83-4.951,0.403c-1.383-0.435-2.56-1.251-3.54-2.44
			c-0.976-1.191-1.766-2.671-2.364-4.454c-0.6-1.777-1.063-3.657-1.391-5.633s-0.558-3.974-0.696-5.984
			c-0.134-2.014-0.214-3.853-0.234-5.525c-0.021-1.666,0.014-3.546,0.097-5.638c0.088-2.101,0.268-4.24,0.543-6.437
			c0.276-2.195,0.689-4.395,1.239-6.589c0.551-2.202,1.297-4.247,2.234-6.135c0.942-1.89,2.089-3.545,3.448-4.978
			C540.45,334.565,542.089,333.5,544.007,332.802 M544.79,396.33c4.001-1.456,7.259-3.754,9.781-6.895
			c2.522-3.146,4.502-6.698,5.939-10.676c1.438-3.964,2.403-8.138,2.898-12.508c0.495-4.371,0.719-8.482,0.671-12.334
			c-0.047-3.846-0.37-7.758-0.968-11.73s-1.657-7.409-3.18-10.303c-1.521-2.893-3.571-4.985-6.147-6.27
			c-2.577-1.284-5.863-1.2-9.864,0.256c-4,1.456-7.265,3.756-9.781,6.894c-2.522,3.142-4.502,6.7-5.939,10.67
			c-1.437,3.971-2.403,8.145-2.898,12.516c-0.5,4.372-0.724,8.483-0.677,12.328c0.048,3.852,0.37,7.765,0.974,11.735
			c0.599,3.973,1.658,7.409,3.18,10.296c1.522,2.9,3.571,4.985,6.148,6.276C537.498,397.873,540.789,397.786,544.79,396.33"/>
		<polyline clip-path="url(#SVGID_4_)" fill="#808285" points="596.478,376.359 603.387,373.845 602.546,305.691 596.542,307.877 
			581.109,328.382 585.29,332.764 595.601,318.662 595.766,318.603 596.478,376.359 		"/>
		<path clip-path="url(#SVGID_4_)" fill="#808285" d="M646.72,359.23c2.846-1.035,5.485-2.546,7.913-4.527
			c2.422-1.973,4.515-4.267,6.271-6.874c1.758-2.602,3.122-5.488,4.106-8.65c0.979-3.154,1.447-6.438,1.405-9.843
			c-0.04-3.206-0.515-6.012-1.425-8.425c-0.91-2.406-2.202-4.319-3.872-5.74c-1.67-1.427-3.646-2.287-5.932-2.58
			c-2.29-0.298-4.829,0.064-7.623,1.081c-1.207,0.439-2.48,1.017-3.82,1.726c-1.341,0.716-2.553,1.592-3.644,2.631l0.019-18.468
			l23.759-8.648l-0.093-7.51l-30.497,11.1l-0.138,35.628c1.737-1.851,3.643-3.562,5.716-5.119c2.073-1.565,4.094-2.702,6.068-3.421
			c2.026-0.737,3.92-1.085,5.681-1.05c1.768,0.033,3.299,0.473,4.602,1.317c1.302,0.852,2.341,2.1,3.104,3.757
			c0.764,1.656,1.16,3.734,1.191,6.233c0.029,2.379-0.274,4.645-0.911,6.811c-0.631,2.164-1.503,4.142-2.607,5.93
			c-1.109,1.79-2.411,3.328-3.91,4.616s-3.122,2.247-4.875,2.886c-2.465,0.896-4.653,0.903-6.562,0.019
			c-1.908-0.885-3.374-2.427-4.396-4.639l-6.865,5.598c1.635,3.207,3.823,5.437,6.565,6.694S642.281,360.846,646.72,359.23"/>
	</g>
	<polygon fill="#878688" points="318.046,337.759 320.721,554.709 138.757,429.799 136.082,212.849 	"/>
	<g>
		<defs>
			<polygon id="SVGID_5_" points="318.046,337.759 320.721,554.709 138.757,429.799 136.082,212.849 			"/>
		</defs>
		<clipPath id="SVGID_6_">
			<use xlink:href="#SVGID_5_"  overflow="visible"/>
		</clipPath>
		<path clip-path="url(#SVGID_6_)" fill="#E8E8E8" d="M281.064,407.368l0.581,47.121c-7.54,0.85-16.011-1.953-25.424-8.415
			c-4.765-3.271-9.156-7.432-13.165-12.46s-7.474-10.637-10.402-16.821s-5.245-12.785-6.944-19.807
			c-1.699-7.013-2.591-14.122-2.68-21.324c-0.091-7.373,0.637-13.525,2.189-18.438c1.552-4.913,3.743-8.514,6.566-10.788
			c2.824-2.274,6.209-3.203,10.161-2.775c3.952,0.436,8.315,2.292,13.079,5.562c4.707,3.231,9.131,7.104,13.278,11.632
			c4.147,4.52,7.872,10.073,11.183,16.646l-7.956,6.674c-2.012-4.224-4.435-8.078-7.273-11.575
			c-2.838-3.497-5.829-6.324-8.961-8.475c-3.2-2.197-6.082-3.339-8.645-3.417c-2.563-0.087-4.756,0.738-6.581,2.452
			c-1.825,1.713-3.221,4.217-4.186,7.512c-0.965,3.303-1.42,7.25-1.363,11.851c0.061,4.944,0.625,9.846,1.69,14.714
			c1.065,4.859,2.548,9.447,4.448,13.763c1.899,4.316,4.151,8.225,6.756,11.732c2.605,3.515,5.508,6.367,8.708,8.564
			c2.788,1.913,5.408,3.325,7.872,4.242c2.459,0.913,4.635,1.199,6.534,0.869l-0.268-21.737l-12.641-8.677l-0.183-14.84
			L281.064,407.368 M195.329,322.957c-1.282-0.879-2.513-1.508-3.695-1.894c-1.188-0.381-2.256-0.425-3.201-0.13
			c-0.945,0.297-1.704,1.007-2.266,2.124c-0.562,1.116-0.827,2.724-0.801,4.801c0.039,3.125,0.79,6.01,2.264,8.656
			c1.474,2.646,3.291,5.318,5.461,8.008c2.165,2.693,4.532,5.48,7.104,8.361c2.566,2.885,4.938,6.062,7.118,9.532
			c2.174,3.476,4.006,7.358,5.5,11.652s2.275,9.175,2.343,14.643c0.061,4.943-0.498,8.843-1.67,11.693
			c-1.178,2.854-2.783,4.789-4.813,5.796c-2.036,1.019-4.409,1.194-7.124,0.53c-2.715-0.655-5.584-2.021-8.606-4.096
			c-3.834-2.632-7.538-6.127-11.107-10.467c-3.569-4.34-6.658-9.643-9.271-15.912l8.136-6.295c1.371,3.961,3.158,7.526,5.359,10.718
			c2.201,3.185,4.519,5.619,6.961,7.296c1.276,0.876,2.554,1.49,3.823,1.85c1.275,0.356,2.426,0.373,3.459,0.052
			c1.033-0.328,1.859-1.07,2.477-2.241c0.619-1.163,0.919-2.784,0.894-4.869c-0.042-3.383-0.801-6.482-2.277-9.308
			c-1.476-2.818-3.294-5.592-5.459-8.333c-2.17-2.729-4.538-5.539-7.104-8.424c-2.571-2.88-4.943-6.034-7.117-9.462
			c-2.179-3.432-4.01-7.275-5.504-11.523c-1.494-4.255-2.27-9.116-2.337-14.584c-0.059-4.771,0.544-8.439,1.809-11.018
			c1.265-2.57,2.939-4.286,5.034-5.125c2.09-0.851,4.495-0.896,7.216-0.149c2.716,0.749,5.497,2.1,8.347,4.057
			c3.253,2.232,6.416,5.132,9.483,8.701c3.067,3.568,5.842,7.883,8.327,12.941l-7.862,7.126c-1.197-3.315-2.773-6.226-4.733-8.732
			S197.478,324.433,195.329,322.957 M138.446,448.093l183.042,125.651l-3.135-254.282l-183.042-125.65L138.446,448.093"/>
		<path clip-path="url(#SVGID_6_)" fill="#CB2027" d="M192.94,402.635c3.022,2.075,5.892,3.44,8.606,4.096
			c2.715,0.664,5.088,0.488,7.124-0.53c2.031-1.007,3.635-2.942,4.813-5.796c1.173-2.851,1.731-6.75,1.67-11.693
			c-0.067-5.468-0.848-10.349-2.343-14.643s-3.326-8.177-5.5-11.652c-2.179-3.471-4.552-6.647-7.118-9.532
			c-2.571-2.881-4.939-5.668-7.104-8.361c-2.17-2.689-3.987-5.362-5.461-8.008c-1.474-2.646-2.225-5.531-2.264-8.656
			c-0.025-2.077,0.24-3.685,0.801-4.801c0.562-1.117,1.321-1.827,2.266-2.124c0.945-0.295,2.014-0.251,3.201,0.13
			c1.182,0.386,2.413,1.015,3.695,1.894c2.149,1.476,4.207,3.469,6.167,5.976s3.536,5.417,4.733,8.732l7.862-7.126
			c-2.484-5.059-5.26-9.373-8.327-12.941c-3.067-3.569-6.23-6.469-9.483-8.701c-2.85-1.957-5.631-3.308-8.347-4.057
			c-2.721-0.746-5.126-0.701-7.216,0.149c-2.095,0.839-3.77,2.555-5.034,5.125c-1.265,2.578-1.867,6.246-1.809,11.018
			c0.067,5.468,0.843,10.329,2.337,14.584c1.494,4.248,3.325,8.092,5.504,11.523c2.174,3.428,4.546,6.582,7.117,9.462
			c2.566,2.885,4.935,5.695,7.104,8.424c2.165,2.741,3.983,5.515,5.459,8.333c1.477,2.825,2.235,5.925,2.277,9.308
			c0.025,2.085-0.275,3.706-0.894,4.869c-0.618,1.171-1.444,1.913-2.477,2.241c-1.033,0.321-2.185,0.305-3.459-0.052
			c-1.27-0.359-2.547-0.974-3.823-1.85c-2.442-1.677-4.76-4.111-6.961-7.296c-2.202-3.191-3.988-6.757-5.359-10.718l-8.136,6.295
			c2.613,6.27,5.702,11.572,9.271,15.912C185.402,396.508,189.106,400.003,192.94,402.635"/>
		<path clip-path="url(#SVGID_6_)" fill="#CB2027" d="M256.221,446.074c9.414,6.462,17.885,9.265,25.424,8.415l-0.581-47.121
			l-23.624-16.216l0.183,14.84l12.641,8.677l0.268,21.737c-1.898,0.33-4.075,0.044-6.534-0.869
			c-2.464-0.917-5.084-2.329-7.872-4.242c-3.201-2.197-6.104-5.05-8.708-8.564c-2.605-3.508-4.857-7.416-6.756-11.732
			c-1.899-4.315-3.382-8.903-4.448-13.763c-1.066-4.868-1.629-9.77-1.69-14.714c-0.057-4.601,0.397-8.548,1.363-11.851
			c0.965-3.295,2.36-5.799,4.186-7.512c1.825-1.714,4.018-2.539,6.581-2.452c2.562,0.078,5.444,1.22,8.645,3.417
			c3.133,2.15,6.124,4.978,8.961,8.475c2.838,3.497,5.261,7.352,7.273,11.575l7.956-6.674c-3.312-6.572-7.036-12.126-11.183-16.646
			c-4.147-4.527-8.571-8.4-13.278-11.632c-4.764-3.271-9.127-5.127-13.079-5.562c-3.952-0.428-7.336,0.501-10.161,2.775
			c-2.824,2.274-5.015,5.875-6.566,10.788c-1.552,4.913-2.28,11.065-2.189,18.438c0.089,7.202,0.98,14.312,2.68,21.324
			c1.699,7.021,4.016,13.622,6.944,19.807s6.394,11.793,10.402,16.821S251.456,442.804,256.221,446.074"/>
	</g>
	<polygon fill="#AEAEAC" points="471.617,59.53 480.171,187.669 363.331,230.194 354.776,102.055 	"/>
	<g>
		<defs>
			<polygon id="SVGID_7_" points="471.617,59.53 480.171,187.669 363.331,230.194 354.776,102.055 			"/>
		</defs>
		<clipPath id="SVGID_8_">
			<use xlink:href="#SVGID_7_"  overflow="visible"/>
		</clipPath>
		<polyline clip-path="url(#SVGID_8_)" fill="#EAE8E4" points="506.541,18.58 316.168,87.868 328.403,271.146 518.776,201.858 
			506.541,18.58 		"/>
	</g>
	<polygon fill="#7E7F7E" points="363.331,230.194 362.377,229.202 353.822,101.063 354.776,102.055 	"/>
	<polygon fill="#BBBBB8" points="354.776,102.055 353.822,101.063 470.663,58.538 471.617,59.53 	"/>
</g>
</svg>
