<?xml version="1.0" encoding="utf-8"?>
<!-- Generator: Adobe Illustrator 16.0.4, SVG Export Plug-In . SVG Version: 6.00 Build 0)  -->
<!DOCTYPE svg PUBLIC "-//W3C//DTD SVG 1.1//EN" "http://www.w3.org/Graphics/SVG/1.1/DTD/svg11.dtd">
<svg version="1.1" id="Layer_1" xmlns="http://www.w3.org/2000/svg" xmlns:xlink="http://www.w3.org/1999/xlink" x="0px" y="0px"
	 width="283.46px" height="283.46px" viewBox="0 0 283.46 283.46" enable-background="new 0 0 283.46 283.46" xml:space="preserve">
<g>
	<polygon fill-rule="evenodd" clip-rule="evenodd" fill="#E5E5E5" points="221.666,265.27 44.581,265.27 44.581,101.298 
		84.409,65.238 117.836,26.301 221.666,26.301 	"/>
	<g>
		<polygon fill="#FAEFD4" points="216.758,18.19 107.559,18.19 71.377,54.372 35.847,89.25 35.847,260.383 216.758,260.383 		"/>
		<rect x="100.881" y="37.474" fill-rule="evenodd" clip-rule="evenodd" fill="#D1BFAB" width="95.367" height="7.587"/>
		<g>
			<rect x="100.881" y="60.55" fill-rule="evenodd" clip-rule="evenodd" fill="#D1BFAB" width="93.685" height="3.161"/>
			<rect x="100.881" y="68.399" fill-rule="evenodd" clip-rule="evenodd" fill="#D1BFAB" width="93.685" height="3.161"/>
			<rect x="100.881" y="76.25" fill-rule="evenodd" clip-rule="evenodd" fill="#D1BFAB" width="93.685" height="3.16"/>
			<rect x="67.282" y="84.1" fill-rule="evenodd" clip-rule="evenodd" fill="#D1BFAB" width="93.685" height="3.161"/>
		</g>
		<polygon opacity="0.8" fill="#E4DAB3" points="109.84,95.77 35.847,89.413 72.844,57.143 106.744,18.517 		"/>
		<polygon fill="#FFF9E8" points="106.581,88.924 35.847,89.25 69.421,55.676 107.559,18.19 		"/>
	</g>
	<g>
		<g>
			
				<rect x="57.338" y="117.486" fill-rule="evenodd" clip-rule="evenodd" fill="none" stroke="#D4BEAF" stroke-width="5" stroke-miterlimit="10" width="19.916" height="19.915"/>
			
				<rect x="57.338" y="165.896" fill-rule="evenodd" clip-rule="evenodd" fill="none" stroke="#D4BEAF" stroke-width="5" stroke-miterlimit="10" width="19.916" height="19.916"/>
			
				<rect x="57.338" y="214.307" fill-rule="evenodd" clip-rule="evenodd" fill="none" stroke="#D4BEAF" stroke-width="5" stroke-miterlimit="10" width="19.916" height="19.916"/>
		</g>
		<g>
			<path fill-rule="evenodd" clip-rule="evenodd" d="M54.969,194.055c-0.679-0.896-0.136-1.67,0.225-2.459
				c0.354-0.775,0.718-1.545,1.078-2.318c0.018-0.039,0.049-0.084,0.043-0.119c-0.244-1.426,0.777-2.211,1.577-3.092
				c0.673-0.74,1.319-1.43,1.759-2.402c0.671-1.48,1.693-2.803,2.59-4.178c0.662-1.012,1.337-2.018,2.053-2.992
				c0.372-0.504,0.359-0.959,0.119-1.51c-1.807-4.137-3.607-8.279-5.38-12.43c-0.286-0.67-0.428-1.398-0.636-2.102
				c0.075-0.105,0.149-0.211,0.224-0.318c0.603-0.172,1.255-0.25,1.797-0.533c1.354-0.709,2.399-0.568,3.277,0.725
				c2.062,3.035,3.89,6.18,4.202,9.938c0.025,0.305,0.146,0.602,0.272,1.098c0.393-0.406,0.674-0.656,0.909-0.945
				c1.243-1.518,2.458-3.062,3.715-4.57c1.443-1.729,3.088-3.096,5.595-2.717c0.215,0.15,0.43,0.303,0.645,0.453
				c0.281,0.768,0.593,1.527,0.833,2.309c0.163,0.525-0.043,0.969-0.476,1.316c-3.29,2.645-5.386,6.271-7.882,9.57
				c-0.104,0.137-0.098,0.467-0.005,0.629c1.822,3.18,3.351,6.531,5.686,9.406c0.229,0.281,0.391,0.633,0.516,0.977
				c0.19,0.525,0.115,0.729-0.286,1.16c0.174,0.182,0.348,0.363,0.565,0.59c-0.632,0.34-1.189,0.217-1.622-0.094
				c-1.028-0.734-2.102-1.451-2.964-2.357c-1.384-1.453-2.611-3.055-3.906-4.592c-0.268-0.316-0.518-0.652-0.815-0.939
				c-0.657-0.637-1.213-0.615-1.762,0.098c-0.473,0.615-0.856,1.301-1.34,1.908c-0.221,0.275-0.586,0.438-0.979,0.719
				c0.064,0.863-0.418,1.736-1.034,2.559c-0.075,0.1-0.202,0.244-0.293,0.236c-0.749-0.078-0.716,0.52-0.85,0.959
				c-0.19,0.625-0.343,1.227-1.075,1.512c-0.212,0.082-0.287,0.568-0.374,0.885c-0.075,0.273-0.079,0.568-0.128,0.959
				c-0.305-0.184-0.482-0.287-0.81-0.482c-0.622,1.012-1.247,2.023-1.864,3.039c-0.519,0.854-0.689,0.889-1.64,0.529
				c-0.422-0.16-0.895-0.184-1.344-0.27C55.112,194.156,55.041,194.105,54.969,194.055z"/>
		</g>
		<g>
			<rect x="92.821" y="118.593" fill-rule="evenodd" clip-rule="evenodd" fill="#D1BFAB" width="93.683" height="3.161"/>
			<rect x="92.821" y="126.222" fill-rule="evenodd" clip-rule="evenodd" fill="#D1BFAB" width="93.683" height="3.16"/>
			<rect x="92.821" y="133.849" fill-rule="evenodd" clip-rule="evenodd" fill="#D1BFAB" width="33.48" height="3.161"/>
		</g>
		<g>
			<rect x="92.821" y="166.959" fill-rule="evenodd" clip-rule="evenodd" fill="#D1BFAB" width="93.683" height="3.16"/>
			<rect x="92.821" y="174.586" fill-rule="evenodd" clip-rule="evenodd" fill="#D1BFAB" width="93.683" height="3.162"/>
			<rect x="92.821" y="182.215" fill-rule="evenodd" clip-rule="evenodd" fill="#D1BFAB" width="33.48" height="3.16"/>
		</g>
		<g>
			<rect x="92.821" y="215.324" fill-rule="evenodd" clip-rule="evenodd" fill="#D1BFAB" width="93.683" height="3.16"/>
			<rect x="92.821" y="222.951" fill-rule="evenodd" clip-rule="evenodd" fill="#D1BFAB" width="93.683" height="3.162"/>
			<rect x="92.821" y="230.58" fill-rule="evenodd" clip-rule="evenodd" fill="#D1BFAB" width="33.48" height="3.16"/>
		</g>
	</g>
	<g>
		<polygon fill="#F8991D" points="156.799,156.898 219.752,93.945 238.282,112.476 175.33,175.428 166.076,175.428 150.848,181.535 
					"/>
		<polygon fill="#FBF49C" points="175.33,175.428 156.799,156.898 150.848,181.535 		"/>
		<polygon fill="none" points="156.799,156.898 175.33,175.428 150.848,181.535 		"/>
		<polyline fill="#F26722" points="235.697,87.511 161.438,161.537 156.799,156.898 221.666,92.032 226.406,96.773 		"/>
		<polyline fill="#FFCD33" stroke="#F5DB12" stroke-miterlimit="10" points="244.717,96.53 170.691,170.791 175.33,175.428 
			240.195,110.562 235.568,105.936 		"/>
		<g>
			
				<rect x="217.828" y="98.592" transform="matrix(0.7071 0.7071 -0.7071 0.7071 139.2661 -133.6233)" fill="#FCF9CE" width="26.206" height="5.412"/>
		</g>
		<polygon opacity="0.2" fill="#343417" points="161.438,161.537 150.848,181.535 156.799,156.898 		"/>
		<polygon opacity="0.1" fill="#343417" points="170.691,170.791 150.848,181.535 161.438,161.537 		"/>
		<polygon fill="#343417" points="163.089,178.482 162.224,175.375 156.799,170.297 153.824,169.217 150.848,181.535 		"/>
		<path fill="#E26FAB" d="M246.309,98.122L234.105,85.92c-1.74-1.74-4.587-1.74-6.327,0l-1.269,1.268l0,0l-4.844,4.845l9.265,9.265
			l6.101,6.102c0.001,0,0.002,0.001,0.002,0.001l3.162,3.163l3.164-3.164l0,0l0.303-0.303l0.896-0.896l0,0l1.75-1.751
			C248.049,102.709,248.049,99.862,246.309,98.122z"/>
	</g>
</g>
</svg>
